<svg width="575" height="213" viewBox="0 0 575 213" fill="none" xmlns="http://www.w3.org/2000/svg">
<path d="M54.0803 202.899L58.8674 180.268C59.5251 177.159 57.1535 174.233 53.9757 174.233H30.7674C28.3896 174.233 26.3408 172.559 25.8674 170.229L2.10758 53.2649C1.51594 50.3524 3.58032 47.5699 6.53925 47.2916L194.681 29.5944C197.902 29.2914 200.558 32.0803 200.099 35.2825L182.938 154.893C182.585 157.355 180.476 159.183 177.989 159.183H129.514C128.433 159.183 127.38 159.534 126.515 160.183L61.1154 209.211C59.4467 210.462 57.3736 211.968 55.4747 211.106C52.7542 209.871 53.4619 205.822 54.0803 202.899Z" fill="#3ADCA1" stroke="white" stroke-width="3"/>
<path d="M242.188 73.0625V98.0625C240.562 97.1458 239.083 96.6875 237.75 96.6875C233.5 96.6875 231.375 99.9375 231.375 106.438V136H208V101.938C208 92.9375 210.458 85.7708 215.375 80.4375C220.292 75.0625 226.854 72.375 235.062 72.375C236.896 72.375 239.271 72.6042 242.188 73.0625ZM310.375 108.625H274.938C274.396 106.833 274.125 105.188 274.125 103.688C274.125 101.604 274.5 99.5625 275.25 97.5625H287.125C286.292 92.9375 283.688 90.625 279.312 90.625C276.396 90.625 274.021 91.875 272.188 94.375C270.354 96.8333 269.438 100 269.438 103.875C269.438 107.917 270.312 111.188 272.062 113.688C273.854 116.188 276.188 117.438 279.062 117.438C281.396 117.438 283.646 116.271 285.812 113.938L299.125 129.938C292.917 134.812 286.021 137.25 278.438 137.25C269.188 137.25 261.417 134.146 255.125 127.938C248.833 121.729 245.688 114.042 245.688 104.875C245.688 95.75 248.854 88.0417 255.188 81.75C261.562 75.4583 269.375 72.3125 278.625 72.3125C287.667 72.3125 295.25 75.3958 301.375 81.5625C307.542 87.6875 310.625 95.25 310.625 104.25C310.625 105.167 310.542 106.625 310.375 108.625ZM342.125 159.062H318.75V107.062C318.75 97.5208 321.25 89.75 326.25 83.75C329.125 80.2917 332.771 77.5417 337.188 75.5C341.646 73.4583 346.208 72.4375 350.875 72.4375C360.167 72.4375 368 75.5625 374.375 81.8125C380.75 88.0625 383.938 95.7292 383.938 104.812C383.938 113.646 380.771 121.271 374.438 127.688C368.104 134.104 360.604 137.312 351.938 137.312C350.521 137.312 348.438 137.167 345.688 136.875V111.125C347.604 112.667 349.521 113.438 351.438 113.438C353.854 113.438 355.917 112.542 357.625 110.75C359.375 108.958 360.25 106.833 360.25 104.375C360.25 101.917 359.354 99.8333 357.562 98.125C355.771 96.375 353.625 95.5 351.125 95.5C345.125 95.5 342.125 99.6458 342.125 107.938V159.062ZM394.25 74.5625H417.625V109.75C417.625 113.292 419.104 115.062 422.062 115.062C424.979 115.062 426.438 113.292 426.438 109.75V74.5625H449.812V109.312C449.812 117.396 447.125 124.229 441.75 129.812C436.375 135.354 429.792 138.125 422 138.125C413.125 138.125 405.979 134.896 400.562 128.438C396.354 123.396 394.25 116.396 394.25 107.438V74.5625ZM484.312 50.6875V74.5625H494.812V99.25H484.312C484.312 104.208 485.083 107.625 486.625 109.5C488.208 111.375 491.083 112.312 495.25 112.312V136.875C494.042 136.917 493.146 136.938 492.562 136.938C487.271 136.938 482.271 135.708 477.562 133.25C472.896 130.792 469.146 127.458 466.312 123.25C462.729 117.875 460.938 110.75 460.938 101.875V50.6875H484.312ZM541 112.625V136.812C539.083 137.146 537.333 137.312 535.75 137.312C526.375 137.312 518.562 134.229 512.312 128.062C506.062 121.896 502.938 114.167 502.938 104.875C502.938 95.8333 506.083 88.1667 512.375 81.875C518.708 75.5833 526.396 72.4375 535.438 72.4375C545.521 72.4375 553.458 75.3958 559.25 81.3125C565.083 87.1875 568 95.2292 568 105.438V136H544.625V107.125C544.625 103.833 543.812 101.208 542.188 99.25C540.604 97.2917 538.458 96.3125 535.75 96.3125C533.292 96.3125 531.167 97.2083 529.375 99C527.583 100.792 526.688 102.917 526.688 105.375C526.688 107.958 527.5 110.083 529.125 111.75C530.75 113.417 532.812 114.25 535.312 114.25C537.354 114.25 539.25 113.708 541 112.625Z" fill="#467bde"/>
</svg>
