<svg width="532" height="488" viewBox="0 0 532 488" fill="none" xmlns="http://www.w3.org/2000/svg">
<!-- <path d="M141.127 463.884L154.77 399.39C156.085 393.172 151.342 387.32 144.986 387.32H76.4841C71.7287 387.32 67.631 383.971 66.6843 379.311L2.21517 61.9462C1.03188 56.1212 5.1607 50.5561 11.0786 49.9994L519.362 2.18875C525.804 1.58285 531.116 7.16064 530.197 13.5649L483.55 338.707C482.844 343.631 478.626 347.287 473.651 347.287H340.748C338.586 347.287 336.481 347.989 334.75 349.286L159.907 480.361C155.468 483.688 149.954 487.696 144.903 485.402C144.806 485.358 144.71 485.311 144.616 485.26C137.799 481.6 139.526 471.454 141.127 463.884Z" fill="#4278dd" stroke="white" stroke-width="3"/> -->
<path d="M141.127 463.884L154.77 399.39C156.085 393.172 151.342 387.32 144.986 387.32H76.4841C71.7287 387.32 67.631 383.971 66.6843 379.311L2.21517 61.9462C1.03188 56.1212 5.1607 50.5561 11.0786 49.9994L519.362 2.18875C525.804 1.58285 531.116 7.16064 530.197 13.5649L483.55 338.707C482.844 343.631 478.626 347.287 473.651 347.287H340.748C338.586 347.287 336.481 347.989 334.75 349.286L159.907 480.361C155.468 483.688 149.954 487.696 144.903 485.402C144.806 485.358 144.71 485.311 144.616 485.26C137.799 481.6 139.526 471.454 141.127 463.884Z" fill="#3ADCA1" stroke="white" stroke-width="3"/>
<path d="M120.188 180.062V205.062C118.562 204.146 117.083 203.688 115.75 203.688C111.5 203.688 109.375 206.938 109.375 213.438V243H86V208.938C86 199.938 88.4583 192.771 93.375 187.438C98.2917 182.062 104.854 179.375 113.062 179.375C114.896 179.375 117.271 179.604 120.188 180.062ZM188.375 215.625H152.938C152.396 213.833 152.125 212.188 152.125 210.688C152.125 208.604 152.5 206.562 153.25 204.562H165.125C164.292 199.938 161.688 197.625 157.312 197.625C154.396 197.625 152.021 198.875 150.188 201.375C148.354 203.833 147.438 207 147.438 210.875C147.438 214.917 148.312 218.188 150.062 220.688C151.854 223.188 154.188 224.438 157.062 224.438C159.396 224.438 161.646 223.271 163.812 220.938L177.125 236.938C170.917 241.812 164.021 244.25 156.438 244.25C147.188 244.25 139.417 241.146 133.125 234.938C126.833 228.729 123.688 221.042 123.688 211.875C123.688 202.75 126.854 195.042 133.188 188.75C139.562 182.458 147.375 179.312 156.625 179.312C165.667 179.312 173.25 182.396 179.375 188.562C185.542 194.688 188.625 202.25 188.625 211.25C188.625 212.167 188.542 213.625 188.375 215.625ZM220.125 266.062H196.75V214.062C196.75 204.521 199.25 196.75 204.25 190.75C207.125 187.292 210.771 184.542 215.188 182.5C219.646 180.458 224.208 179.438 228.875 179.438C238.167 179.438 246 182.562 252.375 188.812C258.75 195.062 261.938 202.729 261.938 211.812C261.938 220.646 258.771 228.271 252.438 234.688C246.104 241.104 238.604 244.312 229.938 244.312C228.521 244.312 226.438 244.167 223.688 243.875V218.125C225.604 219.667 227.521 220.438 229.438 220.438C231.854 220.438 233.917 219.542 235.625 217.75C237.375 215.958 238.25 213.833 238.25 211.375C238.25 208.917 237.354 206.833 235.562 205.125C233.771 203.375 231.625 202.5 229.125 202.5C223.125 202.5 220.125 206.646 220.125 214.938V266.062ZM272.25 181.562H295.625V216.75C295.625 220.292 297.104 222.062 300.062 222.062C302.979 222.062 304.438 220.292 304.438 216.75V181.562H327.812V216.312C327.812 224.396 325.125 231.229 319.75 236.812C314.375 242.354 307.792 245.125 300 245.125C291.125 245.125 283.979 241.896 278.562 235.438C274.354 230.396 272.25 223.396 272.25 214.438V181.562ZM362.312 157.688V181.562H372.812V206.25H362.312C362.312 211.208 363.083 214.625 364.625 216.5C366.208 218.375 369.083 219.312 373.25 219.312V243.875C372.042 243.917 371.146 243.938 370.562 243.938C365.271 243.938 360.271 242.708 355.562 240.25C350.896 237.792 347.146 234.458 344.312 230.25C340.729 224.875 338.938 217.75 338.938 208.875V157.688H362.312ZM419 219.625V243.812C417.083 244.146 415.333 244.312 413.75 244.312C404.375 244.312 396.562 241.229 390.312 235.062C384.062 228.896 380.938 221.167 380.938 211.875C380.938 202.833 384.083 195.167 390.375 188.875C396.708 182.583 404.396 179.438 413.438 179.438C423.521 179.438 431.458 182.396 437.25 188.312C443.083 194.188 446 202.229 446 212.438V243H422.625V214.125C422.625 210.833 421.812 208.208 420.188 206.25C418.604 204.292 416.458 203.312 413.75 203.312C411.292 203.312 409.167 204.208 407.375 206C405.583 207.792 404.688 209.917 404.688 212.375C404.688 214.958 405.5 217.083 407.125 218.75C408.75 220.417 410.812 221.25 413.312 221.25C415.354 221.25 417.25 220.708 419 219.625Z" fill="white"/>
</svg>
