<svg width="532" height="488" viewBox="0 0 532 488" fill="none" xmlns="http://www.w3.org/2000/svg">
<path d="M141.127 463.884L154.77 399.39C156.085 393.172 151.342 387.32 144.986 387.32H76.4841C71.7287 387.32 67.631 383.971 66.6843 379.311L2.21517 61.9462C1.03188 56.1212 5.1607 50.5561 11.0786 49.9994L519.362 2.18875C525.804 1.58285 531.116 7.16064 530.197 13.5649L483.55 338.707C482.844 343.631 478.626 347.287 473.651 347.287H340.748C338.586 347.287 336.481 347.989 334.75 349.286L159.907 480.361C155.468 483.688 149.954 487.696 144.903 485.402C144.806 485.358 144.71 485.311 144.616 485.26C137.799 481.6 139.526 471.454 141.127 463.884Z" fill="#3ADCA1" stroke="white" stroke-width="3"/>
</svg>
